<svg xmlns="http://www.w3.org/2000/svg" viewBox="0 0 120 120" width="100%" height="100%">
  <rect x="10" y="10" width="100" height="100" rx="22" fill="#fbf8f1" />

  <line x1="60" y1="25" x2="60" y2="90" stroke="#2e7d32" stroke-width="3" opacity="0.2" />
  <line x1="42" y1="40" x2="42" y2="90" stroke="#2e7d32" stroke-width="3" opacity="0.2" />
  <line x1="78" y1="40" x2="78" y2="90" stroke="#2e7d32" stroke-width="3" opacity="0.2" />

  <path d="M 35 90 Q 60 75 85 90 Z" fill="#5d4037" />

  <path d="M 60 90 Q 60 65 54 52" fill="none" stroke="#4caf50" stroke-width="4" stroke-linecap="round" />
  
  <path d="M 57 70 Q 35 60 42 42 Q 60 48 57 70 Z" fill="#81c784" />
  
  <path d="M 58 63 Q 85 45 78 28 Q 60 40 58 63 Z" fill="#4caf50" />
  
  <path d="M 59 82 Q 45 78 45 68 Q 55 72 59 82 Z" fill="#66bb6a" />

  <g transform="translate(80, 78)">
    <circle cx="0" cy="-4" r="2.5" fill="#ffffff" />
    <circle cx="0" cy="4" r="2.5" fill="#ffffff" />
    <circle cx="-4" cy="0" r="2.5" fill="#ffffff" />
    <circle cx="4" cy="0" r="2.5" fill="#ffffff" />
    <circle cx="-3" cy="-3" r="2.5" fill="#ffffff" />
    <circle cx="3" cy="-3" r="2.5" fill="#ffffff" />
    <circle cx="-3" cy="3" r="2.5" fill="#ffffff" />
    <circle cx="3" cy="3" r="2.5" fill="#ffffff" />
    <circle cx="0" cy="0" r="2.5" fill="#ffca28" />
  </g>

  <path d="M 60 22 L 22 55 L 22 90 L 98 90 L 98 55 Z" fill="none" stroke="#2e7d32" stroke-width="6" stroke-linejoin="round" />
  
  <line x1="18" y1="90" x2="102" y2="90" stroke="#2e7d32" stroke-width="6" stroke-linecap="round" />
</svg>
